<svg width="20" height="20" viewBox="0 0 20 20" fill="none" xmlns="http://www.w3.org/2000/svg">
<g clip-path="url(#clip0_4_15886)">
<path d="M19.4989 12.3681C18.1906 17.6164 12.8733 20.8068 7.63243 19.4985C2.38395 18.1902 -0.80646 12.873 0.501838 7.63227C1.81014 2.38389 7.11983 -0.806437 12.3683 0.501832C17.6092 1.80245 20.8072 7.11968 19.4989 12.3681Z" fill="url(#paint0_linear_4_15886)"/>
<path d="M14.6619 8.77978C14.8532 7.47933 13.8664 6.77555 12.5047 6.30891L12.9484 4.54183L11.8774 4.27408L11.449 5.99526C11.166 5.92643 10.8753 5.85758 10.5846 5.79639L11.013 4.06753L9.94207 3.7998L9.50603 5.55924C9.26888 5.50568 9.03938 5.45214 8.81755 5.3986V5.39095L7.33351 5.02376L7.05046 6.17122C7.05046 6.17122 7.84603 6.3548 7.83074 6.36245C8.26676 6.46955 8.34326 6.76024 8.32796 6.98974L7.82309 9.00162C7.85367 9.00926 7.89192 9.01691 7.93782 9.03987C7.89957 9.03222 7.86134 9.02458 7.82309 9.00926L7.1193 11.8244C7.06576 11.9544 6.92807 12.1533 6.62972 12.0768C6.63738 12.0921 5.84944 11.8856 5.84944 11.8856L5.31396 13.1172L6.71386 13.4691C6.97396 13.5379 7.2264 13.5991 7.47884 13.668L7.03515 15.4503L8.10613 15.7181L8.5498 13.951C8.84051 14.0275 9.13119 14.104 9.40657 14.1728L8.97055 15.9323L10.0415 16.2L10.4852 14.4176C12.3211 14.7619 13.6981 14.6242 14.2718 12.9642C14.7384 11.6331 14.2489 10.8605 13.285 10.3556C13.9964 10.195 14.5243 9.72835 14.6619 8.77978ZM12.2064 12.2222C11.8774 13.5532 9.62842 12.8341 8.90169 12.6506L9.49074 10.2868C10.2174 10.4704 12.5583 10.8299 12.2064 12.2222ZM12.543 8.75683C12.237 9.97314 10.3704 9.35351 9.76611 9.20051L10.3016 7.05858C10.9059 7.21158 12.8566 7.49462 12.543 8.75683Z" fill="white"/>
</g>
<defs>
<linearGradient id="paint0_linear_4_15886" x1="978.852" y1="-0.252753" x2="978.852" y2="1958.34" gradientUnits="userSpaceOnUse">
<stop stop-color="#F9AA4B"/>
<stop offset="1" stop-color="#F7931A"/>
</linearGradient>
<clipPath id="clip0_4_15886">
<rect width="20" height="20" fill="white"/>
</clipPath>
</defs>
</svg>
