<svg width="25" height="24" viewBox="0 0 25 24" fill="none" xmlns="http://www.w3.org/2000/svg">
<path d="M18.965 6.6999L16.0774 9.58748L16.085 9.61274L18.2778 17.6843C18.3154 17.8607 18.3108 18.0434 18.2645 18.2177C18.2182 18.3919 18.1314 18.5528 18.0113 18.6873L17.2875 19.4111C17.2407 19.4657 17.1809 19.5077 17.1135 19.5331C17.0462 19.5585 16.9736 19.5666 16.9023 19.5565C16.8311 19.5465 16.7635 19.5186 16.7059 19.4755C16.6482 19.4324 16.6024 19.3755 16.5726 19.31L13.6067 13.9416L12.6656 12.9993L10.1772 15.4877C9.89197 15.7422 9.57322 15.9564 9.22982 16.1243L9.78561 17.9521C9.82778 18.1264 9.82694 18.3082 9.78314 18.4821C9.73935 18.6559 9.65393 18.8165 9.53424 18.95L9.31319 19.1723C9.20033 19.2843 9.04777 19.3472 8.88876 19.3472C8.72976 19.3472 8.5772 19.2843 8.46434 19.1723L7.15066 17.8599L7.12792 17.8346L6.13255 16.8418L6.10729 16.8165L4.79613 15.5041C4.68413 15.3912 4.62128 15.2387 4.62128 15.0797C4.62128 14.9207 4.68413 14.7681 4.79613 14.6553L5.01845 14.433C5.15216 14.3137 5.31285 14.2287 5.48669 14.1854C5.66053 14.142 5.8423 14.1416 6.01634 14.1841L7.84413 14.7374C8.0122 14.3941 8.2264 14.0753 8.48076 13.79L10.9692 11.3016L10.0269 10.3618L4.65845 7.3959C4.59296 7.36607 4.53604 7.32022 4.49295 7.26259C4.44987 7.20495 4.422 7.13738 4.41193 7.06613C4.40186 6.99487 4.40991 6.92223 4.43533 6.85491C4.46076 6.78759 4.50274 6.72776 4.5574 6.68095L5.28119 5.95716C5.4157 5.83711 5.57659 5.75043 5.75083 5.70413C5.92507 5.65782 6.10777 5.6532 6.28413 5.69064L14.3557 7.88348L14.381 7.89106L17.2686 5.00348C17.7359 4.53358 19.3161 3.71506 19.786 4.18242C20.2534 4.65232 19.4336 6.23127 18.965 6.6999Z" fill="#2B3449"/>
</svg>
