<svg width="40" height="42" viewBox="0 0 40 42" fill="none" xmlns="http://www.w3.org/2000/svg">
<path d="M20 31.4998C27.25 31.4998 30 29.9998 30 24.4998M11.4015 26.8913C10.5595 26.6808 10 25.9123 10 25.0448V21.9558C10 21.0878 10.5595 20.3188 11.4015 20.1083C12.2145 19.9048 13.2825 19.6763 14.3325 19.5663C15.0515 19.4908 15.6845 19.9123 15.804 20.6248C15.909 21.2468 16 22.1703 16 23.4998C16 24.8298 15.9085 25.7533 15.804 26.3748C15.684 27.0873 15.0515 27.5088 14.3325 27.4338C13.2825 27.3238 12.2145 27.0948 11.4015 26.8913Z" stroke="#2B3449" stroke-width="1.5" stroke-linecap="round" stroke-linejoin="round"/>
<path d="M28.5985 26.8913C29.4405 26.6808 30 25.9123 30 25.0448V21.9558C30 21.0878 29.4405 20.3188 28.5985 20.1083C27.7855 19.9048 26.7175 19.6763 25.6675 19.5663C24.9485 19.4908 24.3155 19.9123 24.196 20.6248C24.091 21.2468 24 22.1703 24 23.4998C24 24.8298 24.0915 25.7533 24.196 26.3748C24.316 27.0873 24.9485 27.5088 25.6675 27.4338C26.7175 27.3238 27.7855 27.0948 28.5985 26.8913Z" stroke="#2B3449" stroke-width="1.5" stroke-linecap="round" stroke-linejoin="round"/>
<path d="M30 21.9555V20.5C30 14.977 25.523 10.5 20 10.5C14.477 10.5 10 14.977 10 20.5V21.9555M26.978 19.7565C26.693 16.255 23.678 13.5 20 13.5C16.322 13.5 13.307 16.255 13.022 19.7565" stroke="#2B3449" stroke-width="1.5" stroke-linecap="round" stroke-linejoin="round"/>
</svg>
